<?xml version="1.0" encoding="utf-8"?>
<!-- Generator: Adobe Illustrator 28.1.0, SVG Export Plug-In . SVG Version: 6.00 Build 0)  -->
<svg version="1.1" id="图层_1" xmlns="http://www.w3.org/2000/svg" xmlns:xlink="http://www.w3.org/1999/xlink" x="0px" y="0px"
	 viewBox="0 0 837.99 768" style="enable-background:new 0 0 837.99 768;" xml:space="preserve">
<style type="text/css">
	.st0{fill:#DA2C43;}
</style>
<g>
	<g>
		<g id="GIFLg4_00000036936291964304751520000013007455575120318874_">
			<g>
				<path class="st0" d="M486.39,600.8l-20.7-37.69c0,0-1.25,1.56-1.87,2.2c-12.94,13.39-26.2,26.43-40.73,38.13
					c-30.9,24.67-68.17,43.32-107.99,46.43c-89.31,9.29-171.44-63.76-185.42-150.17c-15.9-90.82,30.48-185.5,106.43-235.67
					c48.35-32.89,107.08-47.76,165.32-44.46c5.16,0.23,10.43,0.34,15.85,1.95c-22.15,7.52-93.77,39.27-131.34,73.67
					c-46.15,42.49-86.56,109.24-85.5,174.09c1.25,39.56,21.87,77.77,56.19,98.31c57.3,33.36,121.82-11.98,158.55-56.06
					c-12.87-7.34-26.17-13.59-39.07-20.86l138.68-30.43L486.39,600.8z"/>
				<path class="st0" d="M444.92,656.7c73-40.16,139.64-97.04,176.01-173.36c14.76-31.7,25.27-68.64,15.1-103.24
					c-11.6-40.44-53.62-64.96-94.03-50.17c-34.14,10.82-62.02,34.37-86.64,59.64l38.68,23.87c-47.65,9.13-95.95,15.93-143.71,23.79
					l34.55-141.14c6.64,13.7,13,27.42,19.77,41.56c40.73-38.73,88.35-75.25,145.79-82.08c72.71-10.01,142,43.63,156.73,114.42
					c17.07,80.1-18.7,165.79-78.11,219.87c-49.08,45.03-114.53,67.42-180.75,67.76C447.3,657.64,446.24,657.9,444.92,656.7z"/>
			</g>
		</g>
		<g>
			<path class="st0" d="M438.4,221.14L438.4,221.14L438.4,221.14c-1.84-23.32,4.25-45.45,16.01-63.71
				c16.81-26.17,45.27-44.46,78.68-47.08l0,0l0,0C537.52,167.08,495.14,216.7,438.4,221.14z"/>
		</g>
	</g>
</g>
</svg>
