<?xml version="1.0" encoding="utf-8"?>
<!-- Generator: Adobe Illustrator 28.1.0, SVG Export Plug-In . SVG Version: 6.00 Build 0)  -->
<svg version="1.1" id="图层_1" xmlns="http://www.w3.org/2000/svg" xmlns:xlink="http://www.w3.org/1999/xlink" x="0px" y="0px"
	 viewBox="140 300 640 175" style="enable-background:new 140 300 640 175;" xml:space="preserve">
<style type="text/css">
	.st0{fill:#DA2C43;}
</style>
<g>
	<g>
		<path d="M386.04,418.14h-21.96l-3.81,10.03H349.8l21.23-51.75h7.98l21.23,51.75h-10.47L386.04,418.14z M382.96,409.94l-7.98-21.08
			l-7.83,21.08H382.96z"/>
		<path d="M403.81,389.23h9.08v4.39c2.9-3.42,6.61-5.12,11.13-5.12c4.64,0,8.33,1.5,11.09,4.5c2.76,3.03,4.14,7.36,4.14,12.99v4.83
			c0,3.78-0.67,7.03-2.01,9.74c-1.37,2.76-3.18,4.82-5.45,6.19c-2.29,1.39-4.9,2.09-7.83,2.09c-4.64,0-8.25-1.54-10.83-4.61v15.66
			h-9.3v-50.66H403.81L403.81,389.23z M427.82,418.03c1.41-1.66,2.12-4.18,2.12-7.58v-4.03c0-6.44-2.78-9.66-8.35-9.66
			c-2.63,0-4.71,0.84-6.22,2.53c-1.51,1.71-2.27,4.04-2.27,6.99v4.98c0,2.85,0.78,5.11,2.34,6.77c1.59,1.68,3.68,2.53,6.3,2.53
			C424.38,420.56,426.4,419.71,427.82,418.03z"/>
		<path d="M445.81,389.23h9.08v4.39c2.9-3.42,6.61-5.12,11.13-5.12c4.64,0,8.33,1.5,11.09,4.5c2.76,3.03,4.13,7.36,4.13,12.99v4.83
			c0,3.78-0.67,7.03-2.01,9.74c-1.37,2.76-3.18,4.82-5.45,6.19c-2.29,1.39-4.9,2.09-7.83,2.09c-4.64,0-8.25-1.54-10.83-4.61v15.66
			h-9.3v-50.66H445.81L445.81,389.23z M469.82,418.03c1.41-1.66,2.12-4.18,2.12-7.58v-4.03c0-6.44-2.78-9.66-8.34-9.66
			c-2.64,0-4.71,0.84-6.22,2.53c-1.51,1.71-2.27,4.04-2.27,6.99v4.98c0,2.85,0.78,5.11,2.34,6.77c1.59,1.68,3.68,2.53,6.3,2.53
			C466.38,420.56,468.4,419.71,469.82,418.03z"/>
		<path d="M490.99,425.06c-2.12-2.07-3.18-5.23-3.18-9.48v-39.16h9.3V415c0,1.88,0.39,3.21,1.17,3.99c0.76,0.76,2.15,1.13,4.17,1.13
			h3.51v8.05h-5.2C496.35,428.17,493.09,427.13,490.99,425.06z"/>
		<path d="M518.46,411.26v0.15c0,6.25,3.2,9.37,9.59,9.37c2.15,0,3.9-0.4,5.27-1.21c1.37-0.81,2.17-1.94,2.42-3.4l0.07-0.22h9.08
			v0.44c-0.27,3.78-1.94,6.8-5.01,9.04c-3.1,2.27-7.16,3.4-12.19,3.4c-5.78,0-10.3-1.57-13.54-4.72c-3.27-3.15-4.9-7.75-4.9-13.8
			v-3.37c0-5.93,1.6-10.49,4.79-13.69c3.17-3.17,7.58-4.76,13.21-4.76c5.61,0,10.02,1.57,13.21,4.72c3.2,3.15,4.79,7.65,4.79,13.51
			v4.54L518.46,411.26L518.46,411.26z M518.46,404.89h17.5v-0.59c0-2.59-0.79-4.54-2.38-5.86c-1.56-1.32-3.67-1.98-6.33-1.98
			C521.73,396.47,518.8,399.28,518.46,404.89z"/>
		<path d="M572.32,407.82h-10.25v20.35h-9.88v-51.75h22.55c5.66,0,10.11,1.35,13.36,4.06c3.24,2.71,4.87,6.6,4.87,11.67
			c0,3.71-0.88,6.78-2.63,9.22c-1.76,2.46-4.37,4.22-7.83,5.27l12.81,21.52h-11.71L572.32,407.82z M562.07,399.47h12.96
			c2.76,0,4.82-0.61,6.19-1.83s2.04-3.05,2.01-5.49c0-2.37-0.72-4.16-2.16-5.38c-1.42-1.2-3.43-1.79-6.04-1.79h-12.96L562.07,399.47
			L562.07,399.47z"/>
		<path d="M603.01,424.25c-3.15-3.05-4.72-7.5-4.72-13.36v-4.61c0-5.81,1.57-10.22,4.72-13.25c3.12-3.03,7.48-4.54,13.07-4.54
			c5.49,0,9.8,1.52,12.92,4.57c3.1,3.03,4.65,7.43,4.65,13.21v4.61c0,5.86-1.56,10.31-4.69,13.36c-3.12,3.05-7.42,4.57-12.88,4.57
			C610.54,428.83,606.18,427.3,603.01,424.25z M624.42,410.82v-4.39c0-3.29-0.72-5.73-2.16-7.32c-1.41-1.56-3.48-2.34-6.19-2.34
			c-5.71,0-8.56,3.22-8.56,9.66v4.39c0,6.44,2.85,9.69,8.56,9.74C621.64,420.51,624.42,417.26,624.42,410.82z"/>
		<path d="M644.68,424.51c-2.93-2.88-4.39-7.1-4.39-12.66v-22.62h9.3v22.18c0,2.98,0.63,5.25,1.9,6.81s3.34,2.34,6.22,2.34
			c2.88,0,4.94-0.77,6.19-2.31c1.24-1.54,1.87-3.82,1.87-6.84v-22.18h9.3v22.62c0,5.66-1.45,9.91-4.36,12.74
			c-2.9,2.83-7.24,4.25-12.99,4.25C651.93,428.83,647.58,427.39,644.68,424.51z"/>
		<path d="M695.9,395.74v19.84c0,1.71,0.35,2.92,1.06,3.62c0.71,0.71,1.91,1.06,3.62,1.06h3.29v7.91h-4.98c-3.98,0-7-1.04-9.08-3.11
			c-2.1-2.1-3.15-5.06-3.15-8.89v-20.42h-6.81v-6.52h6.81v-7.69l9.22-3.22v10.91h8.86v6.52L695.9,395.74L695.9,395.74z"/>
		<path d="M718.36,411.26v0.15c0,6.25,3.2,9.37,9.59,9.37c2.15,0,3.9-0.4,5.27-1.21c1.37-0.81,2.17-1.94,2.42-3.4l0.07-0.22h9.08
			v0.44c-0.27,3.78-1.94,6.8-5.01,9.04c-3.1,2.27-7.16,3.4-12.19,3.4c-5.78,0-10.3-1.57-13.54-4.72c-3.27-3.15-4.9-7.75-4.9-13.8
			v-3.37c0-5.93,1.6-10.49,4.79-13.69c3.17-3.17,7.58-4.76,13.21-4.76c5.61,0,10.02,1.57,13.21,4.72c3.2,3.15,4.79,7.65,4.79,13.51
			v4.54L718.36,411.26L718.36,411.26z M718.36,404.89h17.5v-0.59c0-2.59-0.79-4.54-2.38-5.86c-1.56-1.32-3.67-1.98-6.33-1.98
			C721.63,396.47,718.7,399.28,718.36,404.89z"/>
		<path d="M751.72,389.23h9.08v4.39c1.32-1.76,2.96-3.07,4.94-3.95c1.98-0.88,4.14-1.32,6.48-1.32c1.39,0,2.61,0.1,3.66,0.29v8.86
			c-1.76-0.63-3.61-0.95-5.56-0.95c-2.9,0-5.19,0.87-6.84,2.6c-1.63,1.71-2.45,4.18-2.45,7.43v21.59h-9.3L751.72,389.23
			L751.72,389.23z"/>
	</g>
	<g>
		<g id="GIFLg4_00000026163387083828264860000017147033397554710446_">
			<g>
				<path class="st0" d="M256.05,449.58l-6.26-11.4c0,0-0.38,0.47-0.57,0.67c-3.92,4.05-7.93,8-12.32,11.54
					c-9.35,7.46-20.62,13.1-32.67,14.05c-27.02,2.81-51.86-19.29-56.09-45.43c-4.81-27.47,9.22-56.12,32.2-71.29
					c14.63-9.95,32.39-14.45,50.01-13.45c1.56,0.07,3.15,0.11,4.8,0.59c-6.7,2.27-28.37,11.88-39.73,22.29
					c-13.96,12.85-26.19,33.04-25.86,52.66c0.38,11.97,6.62,23.53,17,29.74c17.34,10.09,36.85-3.62,47.96-16.95
					c-3.89-2.22-7.91-4.11-11.82-6.31l41.95-9.21L256.05,449.58z"/>
				<path class="st0" d="M243.51,466.49c22.08-12.15,42.24-29.35,53.24-52.44c4.47-9.59,7.64-20.76,4.56-31.23
					c-3.51-12.23-16.22-19.65-28.45-15.17c-10.33,3.27-18.76,10.4-26.21,18.04l11.7,7.22c-14.42,2.76-29.03,4.81-43.47,7.2
					l10.45-42.69c2.01,4.14,3.93,8.29,5.98,12.57c12.32-11.71,26.72-22.76,44.1-24.83c22-3.03,42.95,13.2,47.41,34.61
					c5.16,24.23-5.66,50.15-23.63,66.51c-14.85,13.62-34.64,20.4-54.68,20.5C244.23,466.77,243.91,466.86,243.51,466.49z"/>
			</g>
		</g>
		<g>
			<path class="st0" d="M241.53,334.74L241.53,334.74L241.53,334.74c-0.55-7.06,1.29-13.75,4.84-19.28
				c5.09-7.92,13.69-13.45,23.8-14.24l0,0l0,0C271.51,318.38,258.69,333.39,241.53,334.74z"/>
		</g>
	</g>
</g>
</svg>
